<svg xmlns="http://www.w3.org/2000/svg" viewBox="0 0 400 354"><path fill="#2e7d32" d="m170 146-6-10a121 121 0 0 1-12-61q4-43 32-56 20-7 42 2a44 44 0 0 1 26 46q-4 33-36 57-13 10-30 16l-15 7z"/><path fill="#63b967" d="m297 188-8-1c-15-3-29-11-51-30l-19-18q-6-5 8-15l23-17q38-24 68-16 14 4 23 17 8 12 10 26v11a48 48 0 0 1-44 43z"/><path fill="#78c17a" fill-opacity=".9" d="M260 309q-17-2-29-11-23-20-12-65c2-10 5-17 11-30l11-31q1-2 4 1l27 17q27 20 38 45a52 52 0 0 1-1 46 51 51 0 0 1-49 28"/><path fill="#1b5e20" d="m134 309-13-2a44 44 0 0 1-25-18 51 51 0 0 1-8-33q3-25 21-38 13-9 35-10a198 198 0 0 1 52 5l17 1 2 1v4l-4 15-6 16q-12 30-31 45l-12 8a56 56 0 0 1-28 6"/><path fill="#43a047" d="M121 199q-30-3-50-22c-21-20-24-47-9-67q12-15 29-21l12-1 12 1q12 4 22 15 20 21 26 57l3 38z"/></svg>